<svg xmlns="http://www.w3.org/2000/svg" viewBox="0 0 720 380" width="720" height="380" font-family="-apple-system,BlinkMacSystemFont,Segoe UI,Helvetica,Arial,sans-serif" font-size="12">
<text x="70" y="18" fill="#8b949e" font-size="13" font-weight="600">Univariate fit, wall clock (median of 5, log-log)</text>
<line x1="70" y1="328.0" x2="550" y2="328.0" stroke="#8b949e" stroke-opacity="0.25"/>
<text x="62" y="332.0" fill="#8b949e" text-anchor="end">.0001s</text>
<line x1="70" y1="253.5" x2="550" y2="253.5" stroke="#8b949e" stroke-opacity="0.25"/>
<text x="62" y="257.5" fill="#8b949e" text-anchor="end">.001s</text>
<line x1="70" y1="179.0" x2="550" y2="179.0" stroke="#8b949e" stroke-opacity="0.25"/>
<text x="62" y="183.0" fill="#8b949e" text-anchor="end">.01s</text>
<line x1="70" y1="104.5" x2="550" y2="104.5" stroke="#8b949e" stroke-opacity="0.25"/>
<text x="62" y="108.5" fill="#8b949e" text-anchor="end">.1s</text>
<line x1="70" y1="30.0" x2="550" y2="30.0" stroke="#8b949e" stroke-opacity="0.25"/>
<text x="62" y="34.0" fill="#8b949e" text-anchor="end">1s</text>
<text x="87.8" y="346.0" fill="#8b949e" text-anchor="middle">978</text>
<text x="237.6" y="346.0" fill="#8b949e" text-anchor="middle">10.122k</text>
<text x="384.3" y="346.0" fill="#8b949e" text-anchor="middle">99.718k</text>
<text x="532.2" y="346.0" fill="#8b949e" text-anchor="middle">1.00045M</text>
<line x1="70" y1="328" x2="550" y2="328" stroke="#8b949e"/>
<text x="320" y="370" fill="#8b949e" text-anchor="middle">events</text>
<text x="16" y="190" fill="#8b949e" text-anchor="middle" transform="rotate(-90 16 190)">seconds</text>
<path d="M87.8,229.1 L237.6,173.8 L384.3,106.3 L532.2,31.6" fill="none" stroke="#2f7d8f" stroke-width="2.2"/>
<circle cx="87.8" cy="229.1" r="3.4" fill="#2f7d8f"/>
<circle cx="237.6" cy="173.8" r="3.4" fill="#2f7d8f"/>
<circle cx="384.3" cy="106.3" r="3.4" fill="#2f7d8f"/>
<circle cx="532.2" cy="31.6" r="3.4" fill="#2f7d8f"/>
<path d="M87.8,253.7 L237.6,211.4 L384.3,97.3 L532.2,69.1" fill="none" stroke="#b4622a" stroke-width="2.2"/>
<circle cx="87.8" cy="253.7" r="3.4" fill="#b4622a"/>
<circle cx="237.6" cy="211.4" r="3.4" fill="#b4622a"/>
<circle cx="384.3" cy="97.3" r="3.4" fill="#b4622a"/>
<circle cx="532.2" cy="69.1" r="3.4" fill="#b4622a"/>
<path d="M87.8,276.9 L237.6,258.8 L384.3,201.5 L532.2,129.3" fill="none" stroke="#8a7ab5" stroke-width="2.2"/>
<circle cx="87.8" cy="276.9" r="3.4" fill="#8a7ab5"/>
<circle cx="237.6" cy="258.8" r="3.4" fill="#8a7ab5"/>
<circle cx="384.3" cy="201.5" r="3.4" fill="#8a7ab5"/>
<circle cx="532.2" cy="129.3" r="3.4" fill="#8a7ab5"/>
<rect x="564" y="33" width="11" height="11" fill="#2f7d8f" rx="2"/>
<text x="581" y="42" fill="#8b949e">hawk, likelihood</text>
<rect x="564" y="53" width="11" height="11" fill="#b4622a" rx="2"/>
<text x="581" y="62" fill="#8b949e">tick, likelihood</text>
<rect x="564" y="73" width="11" height="11" fill="#8a7ab5" rx="2"/>
<text x="581" y="82" fill="#8b949e">tick, least-squares</text>
</svg>
